<svg xmlns="http://www.w3.org/2000/svg" width="1200" height="1600"><rect width="1200" height="1600" fill="#f8fafc"/><rect width="1200" height="185" fill="#14532d"/><text x="65" y="72" font-family="Arial" font-size="50" font-weight="900" fill="#fff">Network Technician Benchmark</text><text x="65" y="122" font-family="Arial" font-size="24" font-weight="600" fill="#dcfce7">Mission 20 • Unfamiliar fault + design change + evidence trail</text><rect x="65" y="235" width="1070" height="144" rx="20" fill="#fff" stroke="#cbd5e1" stroke-width="3"/><text x="95" y="273" font-family="Arial" font-size="24" font-weight="900" fill="#14532d">1. DEFINE SCOPE</text><line x1="95" y1="301" x2="1100" y2="301" stroke="#cbd5e1" stroke-width="2"/><line x1="95" y1="329" x2="1100" y2="329" stroke="#cbd5e1" stroke-width="2"/><line x1="95" y1="357" x2="1100" y2="357" stroke="#cbd5e1" stroke-width="2"/><rect x="65" y="390" width="1070" height="172" rx="20" fill="#fff" stroke="#cbd5e1" stroke-width="3"/><text x="95" y="428" font-family="Arial" font-size="24" font-weight="900" fill="#14532d">2. MODEL THE PATH</text><line x1="95" y1="456" x2="1100" y2="456" stroke="#cbd5e1" stroke-width="2"/><line x1="95" y1="484" x2="1100" y2="484" stroke="#cbd5e1" stroke-width="2"/><line x1="95" y1="512" x2="1100" y2="512" stroke="#cbd5e1" stroke-width="2"/><line x1="95" y1="540" x2="1100" y2="540" stroke="#cbd5e1" stroke-width="2"/><rect x="65" y="590" width="1070" height="228" rx="20" fill="#fff" stroke="#cbd5e1" stroke-width="3"/><text x="95" y="628" font-family="Arial" font-size="24" font-weight="900" fill="#14532d">3. TEST</text><line x1="95" y1="656" x2="1100" y2="656" stroke="#cbd5e1" stroke-width="2"/><line x1="95" y1="684" x2="1100" y2="684" stroke="#cbd5e1" stroke-width="2"/><line x1="95" y1="712" x2="1100" y2="712" stroke="#cbd5e1" stroke-width="2"/><line x1="95" y1="740" x2="1100" y2="740" stroke="#cbd5e1" stroke-width="2"/><line x1="95" y1="768" x2="1100" y2="768" stroke="#cbd5e1" stroke-width="2"/><line x1="95" y1="796" x2="1100" y2="796" stroke="#cbd5e1" stroke-width="2"/><rect x="65" y="875" width="1070" height="172" rx="20" fill="#fff" stroke="#cbd5e1" stroke-width="3"/><text x="95" y="913" font-family="Arial" font-size="24" font-weight="900" fill="#14532d">4. DECIDE / CHANGE</text><line x1="95" y1="941" x2="1100" y2="941" stroke="#cbd5e1" stroke-width="2"/><line x1="95" y1="969" x2="1100" y2="969" stroke="#cbd5e1" stroke-width="2"/><line x1="95" y1="997" x2="1100" y2="997" stroke="#cbd5e1" stroke-width="2"/><line x1="95" y1="1025" x2="1100" y2="1025" stroke="#cbd5e1" stroke-width="2"/><rect x="65" y="1080" width="1070" height="172" rx="20" fill="#fff" stroke="#cbd5e1" stroke-width="3"/><text x="95" y="1118" font-family="Arial" font-size="24" font-weight="900" fill="#14532d">5. VERIFY</text><line x1="95" y1="1146" x2="1100" y2="1146" stroke="#cbd5e1" stroke-width="2"/><line x1="95" y1="1174" x2="1100" y2="1174" stroke="#cbd5e1" stroke-width="2"/><line x1="95" y1="1202" x2="1100" y2="1202" stroke="#cbd5e1" stroke-width="2"/><line x1="95" y1="1230" x2="1100" y2="1230" stroke="#cbd5e1" stroke-width="2"/><rect x="65" y="1285" width="1070" height="172" rx="20" fill="#fff" stroke="#cbd5e1" stroke-width="3"/><text x="95" y="1323" font-family="Arial" font-size="24" font-weight="900" fill="#14532d">6. DOCUMENT / HANDOFF</text><line x1="95" y1="1351" x2="1100" y2="1351" stroke="#cbd5e1" stroke-width="2"/><line x1="95" y1="1379" x2="1100" y2="1379" stroke="#cbd5e1" stroke-width="2"/><line x1="95" y1="1407" x2="1100" y2="1407" stroke="#cbd5e1" stroke-width="2"/><line x1="95" y1="1435" x2="1100" y2="1435" stroke="#cbd5e1" stroke-width="2"/><rect x="65" y="1450" width="1070" height="144" rx="20" fill="#fff" stroke="#cbd5e1" stroke-width="3"/><text x="95" y="1488" font-family="Arial" font-size="24" font-weight="900" fill="#14532d">7. ESCALATE</text><line x1="95" y1="1516" x2="1100" y2="1516" stroke="#cbd5e1" stroke-width="2"/><line x1="95" y1="1544" x2="1100" y2="1544" stroke="#cbd5e1" stroke-width="2"/><line x1="95" y1="1572" x2="1100" y2="1572" stroke="#cbd5e1" stroke-width="2"/></svg>